<svg width="149" height="41" viewBox="0 0 149 41" fill="none" xmlns="http://www.w3.org/2000/svg">
<path d="M99.089 0.306885H92.8486V35.2287C98.5199 35.4239 104.168 35.7105 109.792 36.0856V29.9328C106.234 29.6954 102.667 29.4944 99.089 29.3276V0.306885ZM148.683 0.310538H141.828L137.31 10.7902L133.25 0.310538H126.498L133.754 19.0362L125.833 37.4068C128.024 37.6207 130.209 37.8488 132.392 38.0899L136.999 27.4085L141.562 39.183C143.938 39.4887 146.307 39.8077 148.673 40.1458L148.683 40.1418L140.554 19.1629L148.683 0.310538ZM71.4268 34.9234L77.6676 34.9222V20.7171H86.1275V14.5644H77.6676V6.51889H88.8483V0.310944H71.4268V34.9234ZM48.1227 6.51848H54.6544V35.2892C56.731 35.2108 58.8117 35.1463 60.8948 35.0919V6.51848H67.4261V0.310538H48.1227V6.51848ZM26.7872 37.0776C32.5392 36.5548 38.3176 36.1237 44.1219 35.7892V29.6357C40.4133 29.8504 36.7152 30.1041 33.0281 30.3943V21.0796C35.4475 21.0556 38.6332 20.9818 41.4555 21.0167V14.8635C39.2007 14.8582 35.5769 14.8952 33.0281 14.9277V6.51889H44.1219V0.310944H26.7872V37.0776ZM14.5457 22.8538L6.41772 0.310538H0.486816V40.1467C2.56304 39.8507 4.64331 39.5678 6.72765 39.2959V17.6334L13.9547 38.4065C16.2276 38.1427 18.5047 37.8931 20.7866 37.658V0.310538H14.5457V22.8538ZM114.937 36.4561C117.02 36.6157 119.1 36.7866 121.178 36.9716V0.310538H114.937V36.4561Z" fill="#E8E8E8"/>
</svg>
